<?xml version="1.0" encoding="UTF-8"?><svg id="Layer_1" xmlns="http://www.w3.org/2000/svg" viewBox="0 0 467.61 512.25"><defs><style>.cls-1{fill:#121410;}.cls-2{fill:#895d33;}.cls-3{fill:#2d2f29;}.cls-4{fill:#0e100d;}.cls-5{fill:#aa6b35;}.cls-6{fill:#895e33;}.cls-7{fill:#bc803f;}.cls-8{fill:#885d32;}.cls-9{fill:#8a5e33;}.cls-10{fill:#8a5f34;}.cls-11{fill:#b67a3c;}.cls-12{fill:#885c31;}.cls-13{fill:#bd8141;}.cls-14{fill:#0c0e0b;}.cls-15{fill:#cf985d;}.cls-16{fill:#171815;}.cls-17{fill:#895d32;}.cls-18{fill:#a86b34;}</style></defs><path class="cls-3" d="M23.04,135.35C6.82,128.05-.71,96.06.05,79.86,2.99,17.38,64.41-14.11,120.57,6.33c53.22,19.36,85.29,75.27,100.08,127.09l26.25-.2c13.99-46.85,39.52-95.96,84.14-119.86,31.03-15.04,64.59-17.45,96-2,11.52,6.43,22.43,17.57,29,29,11.86,24.27,14.37,49.46,5,75-1.76,3.93-4.71,8.72-7.49,12.01-1.98,2.35-13.85,14.6-13.48,5.62.15-3.7,2.58-9.69,2.95-14.15,1.96-23.49-3.93-51.38-29.98-57.99-41.68-10.59-73.2,41.27-86.48,73.54-2.32,5.65-11.78,30.7-11,35.08.73,4.12,7.51,10.8,7.97,15.88,18.34-25.41,43.97-41.17,74.51-47.99l18.95-2.04c2,.11,4.28.47,5.6,2.11,5.32,6.65-6.89,46.71-9.54,54.93-9.3,19.61-29.1,36.5-50,42.5-6.64,1.91-33.4,4.61-35.48,8.52s-3.78,23.58-3.5,28.47c2.07,36.28,20.03,70.37,19.74,110.74-.09,12.33-1.98,16.92-7.58,27.44-18.63,34.96-63.41,77.98-96.86,99.14-2,1.26-4.09,3.44-6.59,3.04-2.28-.37-11.02-7.53-13.62-9.45-29.56-21.91-61.6-51.39-81.52-82.48-5.06-7.91-12.74-20.22-13.57-29.43-1.84-20.28,3.15-47.47,7.47-67.49,3.47-16.09,12.35-39.93,12.44-55.64.01-2.86-3.86-22.93-5.02-24.75-3.06-4.82-20.07-4.74-26.11-5.89-42.39-8.05-63.51-40.56-68.65-81.35-1.51-11.95-5.54-22.37,10.34-21.34,30.68,1.99,61.69,19.75,82.03,41.97,1.85,2.02,3.72,5.6,5.4,7.37.79.83.67.93,2.07.64,1.92-7.47,7.59-11.4,7.01-19.49-2.85-39.36-60.74-134.47-108.91-97.92-5.39,4.09-12.94,18.21-14.09,18.41-6.56,14.68-5.16,33.08-.6,48.61-.8,1.69-2.77,1.53-4.4,1.39Z"/><path class="cls-4" d="M427.04,11.35c-.61,2.02-2.99,0-4.01-.49-29.82-13.91-58.69-12.13-87.97,2-1.02.49-3.42,2.49-4.01.49,29.77-15.95,65.87-18.81,96-2Z"/><path class="cls-1" d="M413.04,192.35c-2.08-.94-.35-3.09.13-4.37,4.22-11.27,7.63-22.04,8.86-34.14.25-2.44,1.15-12.09.84-13.74-1.68-8.77-19.1-.15-24.82-2.75,5.16-1.15,23.76-6.12,25.81.69,1.55,5.17-1.13,21.33-2.29,27.33-1.69,8.72-4.72,18.96-8.52,26.98Z"/><path class="cls-14" d="M461.04,115.35c-2.11-.97-.32-3.09.13-4.36,8.45-23.73,6.06-44.26-4.64-66.62-.49-1.02-2.5-3.41-.49-4.01,12.85,22.35,15.69,51.16,5,75Z"/><path class="cls-16" d="M28.04,85.35c-3.69,12.18-4.51,24.65-2.75,37.25.59,4.19,6.69,16.78-2.25,12.75l3.99-1.49c-5.04-13.57-5.54-30.54-1.49-44.51.26-.91,1.32-4.83,1.51-5,.66-.6.92,1.01.99,1Z"/><path class="cls-12" d="M152.04,430.85c.04.63.11,2.42.01,3.49-17.59-29.65-14.67-66.48-8.74-99.22,1.82-10.07,5.38-28.01,8.77-37.23.39-1.06.45-2.4,1.94-2.54,3.67,15.24,15.27,28.92,20.47,43.04,3.15,8.54,2.97,18.1,6.05,25.95,1.53,3.9,6.77,8.98,7.29,10.71,1.34,4.49.39,18.13,1.32,24.68,2.03,14.28,7.75,28.66,18.38,38.62,1.66-.81-.5-2.93-.5-3.5v-24.5l14.52,24.98c6.6,13.66,11.19,28.67,10.49,44.02,7.56-4.55,11.73-13.74,14.74-21.75,4.92-13.12,7.81-28.3,9.26-42.24l4.99,15.5v21.5l7.86-11.64c4.81-12.05,7.87-24.92,9.13-37.87.65-6.69-.38-22.47,1.21-27.79.36-1.2,4.01-4.73,5.22-6.78,4.45-7.54,4.44-16.75,6.87-25.13,2.79-9.59,7.01-15.31,11.24-23.76,3.43-6.86,6.71-15.31,10.25-21.74.63-1.15-.05-1.69,2.23-1.28,4.4,22.39,11.3,44.61,13,67.51,4.5,60.65-23.71,87.22-69.67,120.31-4.01,2.89-22.56,16.48-25.75,16.18-1.2-.11-2.3-1.05-3.32-1.65-26.96-31.41-70.01-51.08-71.26-98.35-1.89.31-3.26,1.94-3.74,3.21-.63,1.69-2.08,5.17-2.25,12.29-.11,4.91-.29,10.14,0,15Z"/><path class="cls-15" d="M308.04,185.35c1.08,1.84,2.81,3.25,3.88,5.63,3.76,8.38,5.63,18.19,6.12,27.37-26.04-6.54-42.16,20.42-42.98,43,1.01,1.39,11.47-15.95,12.49-15.98.25,0,2.3,2.32,4.21,2.77,5.44,1.27,12.2-1.74,15.84-5.74s1.9-9.41,7.45-8.04c-2.28,9.5-3.32,19.33-5.66,28.83-.59,2.42-1.82,4.3-2.34,6.17l-3.38,5.89c-13.95,9.55-21.14,21.24-22.33,38.33l-2.29,1.78c-1.83,12.08-.73,18.23-.98,29.46-.39,17.36-11.06,27.6-28.51,27.62-8.49,0-10.03-1.32-10.85-9-1.73-16.28,19.42-17.99,22.83-26.1,1.76-4.18.72-13.03-4.96-13.06-6.52-.04-17.76,14.56-23.18,17.9-4.25-.1-25-31.08-29.13-13.11-3.36,14.65,16.89,16.36,22.63,25.94,1.85,3.08,2.39,12.89.72,15.42s-17.37,1.34-20.63.49c-23.24-6.07-16.7-36.58-18.94-54.56l-2.39-2.68c-1.24-8.17-3.59-16.17-7.4-23.53-7.33-5.72-13.4-12.31-18.21-19.79-3.5-12.15-5.98-24.5-7.99-37,7.14.2,3.77,3.43,6.54,7.95,2.32,3.79,9.19,8.22,13.72,7.82,2.72-.24,7.38-3.94,8.16-3.76,1.93.45,7.98,14.84,11.56,15.99-1.05-15.35-8-33.7-22.31-41.18-7.01-3.67-14.51-4.64-20.67,1.18-1.04-14.15,3.02-24.38,9.99-36,6.13-3.37,16.69,1.15,22.79,4.47,17.41,9.48,24.56,29.26,27.87,47.77,2.73,17.16,4.32,34.34,4.77,51.53.3,31.11,40.04,29.95,38.39-1.5l1.85-32.44c2.18-23.73,9.22-54.11,32.01-66.15,5.71-3.02,15.79-7.27,21.32-3.67Z"/><path class="cls-17" d="M308.04,185.35c-36.38,1.96-47.48,35.56-50.99,66.51-1.57,13.81-.83,29.31-3.11,42.89-1.56,9.29-4.81,16.41-14.84,18.15-31.77,5.52-26.01-30.01-28.07-50.04-3.6-35.01-8.88-73.84-51.99-77.51,30.82-51.35,118.83-51.11,149,0Z"/><path class="cls-13" d="M409.04,150.35c-.04,34.91-26.76,73.02-64,72.51,13.97-12.26,28.08-22.72,35.48-40.52.64-1.53,4.03-8.49,1.01-8-16.02,2.61-38.81,30.95-50.49,42.01,3.56-36.4,43.99-62.7,77.99-66Z"/><path class="cls-7" d="M136.03,215.35c-16.93-14.86-30.17-33.85-51.5-42.99-.2,9.03,5.77,18.72,11.09,25.91,7.29,9.84,17.03,16.92,26.41,24.59-38.23-.17-63.72-37.84-63.99-73.5,14.46,1.91,26.53,6.03,38.91,13.58,18.14,11.05,37.85,30.01,39.07,52.42Z"/><path class="cls-2" d="M272.04,107.34c-.9-1.21,9.95-24.12,12.48-26.88,10.68,5.71,22.39,10.13,31.38,18.53l-11.42,23.34c-10.79-5-20.77-12.09-32.44-14.98Z"/><path class="cls-17" d="M177.04,72.34c-8.55,2.27-17.49,8.51-24.47,14.04-1.48,1.17-5.04,5.95-6.51,4.96-.48-4.2-16.3-20.31-15.95-22.36,8.02-8.49,18.47-15.06,29.29-19.48,3.14,1.58,19.16,21.17,17.65,22.83Z"/><path class="cls-6" d="M307.68,49.51c10.88,4.4,21.3,10.87,29.25,19.48l-15.53,21.22-31.35-19.36c5.49-7.39,10.44-15.37,17.62-21.34Z"/><path class="cls-6" d="M195.01,107.31c-11.3,2.74-21.38,9.31-31.4,15.03l-11.65-23.35,30.59-18.53c1.81,0,14.11,24.94,12.46,26.85Z"/><path class="cls-9" d="M315.04,42.34c2.56-3.61,19.06-16.79,22.1-16.53,7.34.63,25.42,17.16,23.77,23.94-.25,1.03-14.17,10.61-16.23,12.53-8.72-7.7-18.27-16.84-29.64-19.94Z"/><path class="cls-2" d="M152.04,40.37c-6.8,4.75-14,8.75-20.47,14.01-2.13,1.73-4.54,3.66-6.58,5.47-1.1.98-.37,3.19-2.43,2.49-.88-.3-14.17-10.76-14.44-11.65-1.93-6.48,14.85-23,21.67-24.18,6.21-1.07,16.74,11.51,22.25,13.85Z"/><path class="cls-11" d="M266.03,379.36c-9.34,25.36-55.6,25.21-64.99,0,21.02,2.85,44.03,3.4,64.99,0Z"/><path class="cls-8" d="M296.03,151.35c-10.63-7-22.49-12.26-34.99-15.01l7.01-19.99,32.55,16.01-4.57,18.99Z"/><path class="cls-10" d="M199,116.38l7.04,19.96c-12.63,2.02-23.73,8.51-35,14l-4.57-18.02c.85-1.77,31.04-17.01,32.52-15.95Z"/><path class="cls-17" d="M84.04,12.36c-6.22,6.16-9.49,13.26-11.93,21.58-5.22.09-10.32-.99-15.6-.62-13.12.92-25.15,8.22-34.45,17.04,7.46-17.96,26.37-31.11,45-35.49,5.98-1.41,11.09-1.42,16.99-2.5Z"/><path class="cls-17" d="M446.03,50.35c-13.13-11.71-30.95-20.14-48.94-16.03l-5.51-14.01-5.53-7.96c24.42,2.29,49.92,14.66,59.98,38Z"/><path class="cls-6" d="M385.96,37.28c-6.31.58-11.22,4.86-16.91,7.07-3.17-10.99-12.45-18.34-21.01-24.99,5.84-1.03,17.05-6.94,22.68-5.28,6.69,1.97,16.53,15.72,15.24,23.2Z"/><path class="cls-9" d="M120.04,19.36c1.62,1.56-.67,1.77-1.31,2.22-9.72,6.79-14.36,12.31-20.25,22.77l-16.02-7.96c1.47-9.18,9.58-22.73,19.93-21.93,1.95.15,16.98,4.27,17.64,4.91Z"/><path class="cls-18" d="M307.04,269.35c-5.6,20.22-13.19,40.2-25.99,57l-2.01-11c1.41-9.3,2.75-19.35,8.16-27.34,4.58-6.75,14.27-12.41,19.84-18.66Z"/><path class="cls-5" d="M160.04,270.35l19.83,18.67c4.54,8.44,6.99,17.87,8.17,27.33-2.28,2.6-1.58,6.49-2.02,9.49-.2,1.36-.4,3.03-1.96,1.5-9.39-18.74-18.16-36.71-24.02-57Z"/></svg>